{
    "asset" : {
        "generator" : "Khronos glTF Blender I/O v1.5.17",
        "version" : "2.0"
    },
    "scene" : 0,
    "scenes" : [
        {
            "name" : "Scene",
            "nodes" : [
                0
            ]
        }
    ],
    "nodes" : [
        {
            "mesh" : 0,
            "name" : "Sphere.003",
            "rotation" : [
                0.7071068286895752,
                0,
                0,
                0.7071067094802856
            ]
        }
    ],
    "materials" : [
        {
            "doubleSided" : true,
            "name" : "Mat.006",
            "pbrMetallicRoughness" : {
                "baseColorFactor" : [
                    0.4099999964237213,
                    0.5,
                    0.4909999966621399,
                    1
                ],
                "roughnessFactor" : 0.7642977237701416
            }
        },
        {
            "doubleSided" : true,
            "name" : "Mat.007",
            "pbrMetallicRoughness" : {
                "baseColorFactor" : [
                    0.311599999666214,
                    0.3799999952316284,
                    0.3731600046157837,
                    1
                ],
                "roughnessFactor" : 0.7642977237701416
            }
        },
        {
            "doubleSided" : true,
            "name" : "Mat.008",
            "pbrMetallicRoughness" : {
                "baseColorFactor" : [
                    0.3587999939918518,
                    0.8545269966125488,
                    0.9200000166893005,
                    1
                ],
                "roughnessFactor" : 0.7642977237701416
            }
        }
    ],
    "meshes" : [
        {
            "name" : "Sphere.003",
            "primitives" : [
                {
                    "attributes" : {
                        "POSITION" : 0,
                        "NORMAL" : 1
                    },
                    "indices" : 2,
                    "material" : 0
                },
                {
                    "attributes" : {
                        "POSITION" : 3,
                        "NORMAL" : 4
                    },
                    "indices" : 5,
                    "material" : 1
                },
                {
                    "attributes" : {
                        "POSITION" : 6,
                        "NORMAL" : 7
                    },
                    "indices" : 8,
                    "material" : 2
                }
            ]
        }
    ],
    "accessors" : [
        {
            "bufferView" : 0,
            "componentType" : 5126,
            "count" : 456,
            "max" : [
                14.488887786865234,
                14.48889446258545,
                -37.596229553222656
            ],
            "min" : [
                -14.488887786865234,
                -14.488882064819336,
                -48.71394729614258
            ],
            "type" : "VEC3"
        },
        {
            "bufferView" : 1,
            "componentType" : 5126,
            "count" : 456,
            "type" : "VEC3"
        },
        {
            "bufferView" : 2,
            "componentType" : 5123,
            "count" : 648,
            "type" : "SCALAR"
        },
        {
            "bufferView" : 3,
            "componentType" : 5126,
            "count" : 864,
            "max" : [
                40.568885803222656,
                40.56888961791992,
                -24.29166603088379
            ],
            "min" : [
                -40.568885803222656,
                -40.56888198852539,
                -38.604331970214844
            ],
            "type" : "VEC3"
        },
        {
            "bufferView" : 4,
            "componentType" : 5126,
            "count" : 864,
            "type" : "VEC3"
        },
        {
            "bufferView" : 5,
            "componentType" : 5123,
            "count" : 1296,
            "type" : "SCALAR"
        },
        {
            "bufferView" : 6,
            "componentType" : 5126,
            "count" : 96,
            "max" : [
                40.568885803222656,
                40.56888961791992,
                -30.71654510498047
            ],
            "min" : [
                -40.568885803222656,
                -40.56888198852539,
                -32.17945098876953
            ],
            "type" : "VEC3"
        },
        {
            "bufferView" : 7,
            "componentType" : 5126,
            "count" : 96,
            "type" : "VEC3"
        },
        {
            "bufferView" : 8,
            "componentType" : 5123,
            "count" : 144,
            "type" : "SCALAR"
        }
    ],
    "bufferViews" : [
        {
            "buffer" : 0,
            "byteLength" : 5472,
            "byteOffset" : 0
        },
        {
            "buffer" : 0,
            "byteLength" : 5472,
            "byteOffset" : 5472
        },
        {
            "buffer" : 0,
            "byteLength" : 1296,
            "byteOffset" : 10944
        },
        {
            "buffer" : 0,
            "byteLength" : 10368,
            "byteOffset" : 12240
        },
        {
            "buffer" : 0,
            "byteLength" : 10368,
            "byteOffset" : 22608
        },
        {
            "buffer" : 0,
            "byteLength" : 2592,
            "byteOffset" : 32976
        },
        {
            "buffer" : 0,
            "byteLength" : 1152,
            "byteOffset" : 35568
        },
        {
            "buffer" : 0,
            "byteLength" : 1152,
            "byteOffset" : 36720
        },
        {
            "buffer" : 0,
            "byteLength" : 288,
            "byteOffset" : 37872
        }
    ],
    "buffers" : [
        {
            "byteLength" : 38160,
            "uri" : "data:application/octet-stream;base64,"
        }
    ]
}
